<mxfile host="65bd71144e">
    <diagram id="tepM6fbjiqjGyKJ970l0" name="Page-1">
        <mxGraphModel dx="2916" dy="1892" grid="1" gridSize="10" guides="1" tooltips="1" connect="1" arrows="1" fold="1" page="1" pageScale="1" pageWidth="850" pageHeight="1100" math="0" shadow="0">
            <root>
                <mxCell id="0"/>
                <mxCell id="1" parent="0"/>
                <mxCell id="5" value="" style="shape=image;verticalLabelPosition=bottom;labelBackgroundColor=default;verticalAlign=top;aspect=fixed;imageAspect=0;image=data:image/png,iVBORw0KGgoAAAANSUhEUgAABXUAAABWCAYAAACAa3VmAAAAAXNSR0IArs4c6QAAAARnQU1BAACxjwv8YQUAAAAJcEhZcwAADsMAAA7DAcdvqGQAAAL+SURBVHhe7ditUUNRGEXRB4oSMAw//aBhIqgkkhIoBwv4GKATXDCfzo3dM2uZc2rYF2+v++MGZ/ibhXPc3zzMg7XH5908WDscPubBaZ/vX/Ng7ef7dx6s7V6e5sHacbuaB2u3d9fz4LTLWQAAAAAAAkRdAAAAAIAQURcAAAAAIETUBQAAAAAIEXUBAAAAAEJEXQAAAACAEFEXAAAAACBE1AUAAAAACBF1AQAAAABCRF0AAAAAgBBRFwAAAAAgRNQFAAAAAAgRdQEAAAAAQkRdAAAAAIAQURcAAAAAIETUBQAAAAAIEXUBAAAAAEJEXQAAAACAEFEXAAAAACBE1AUAAAAACBF1AQAAAABCRF0AAAAAgBBRFwAAAAAgRNQFAAAAAAgRdQEAAAAAQkRdAAAAAIAQURcAAAAAIETUBQAAAAAIEXUBAAAAAEJEXQAAAACAEFEXAAAAACBE1AUAAAAACBF1AQAAAABCRF0AAAAAgBBRFwAAAAAgRNQFAAAAAAgRdQEAAAAAQkRdAAAAAIAQURcAAAAAIETUBQAAAAAIEXUBAAAAAEJEXQAAAACAEFEXAAAAACBE1AUAAAAACBF1AQAAAABCRF0AAAAAgBBRFwAAAAAgRNQFAAAAAAgRdQEAAAAAQkRdAAAAAIAQURcAAAAAIETUBQAAAAAIEXUBAAAAAEJEXQAAAACAEFEXAAAAACBE1AUAAAAACBF1AQAAAABCRF0AAAAAgBBRFwAAAAAgRNQFAAAAAAgRdQEAAAAAQkRdAAAAAIAQURcAAAAAIETUBQAAAAAIEXUBAAAAAEJEXQAAAACAEFEXAAAAACBE1AUAAAAACBF1AQAAAABCRF0AAAAAgBBRFwAAAAAgRNQFAAAAAAgRdQEAAAAAQkRdAAAAAIAQURcAAAAAIETUBQAAAAAIEXUBAAAAAEJEXQAAAACAEFEXAAAAACBE1AUAAAAACBF1AQAAAABCRF0AAAAAgBBRFwAAAAAgRNQFAAAAAAgRdQEAAAAAMrbtH2IHDz1ky3KNAAAAAElFTkSuQmCC;strokeWidth=0;strokeColor=none;" vertex="1" parent="1">
                    <mxGeometry x="-1700" y="-1027" width="850" height="52.33" as="geometry"/>
                </mxCell>
                <mxCell id="12" value="&lt;font color=&quot;#fbf9f9&quot;&gt;#928784&lt;/font&gt;" style="rounded=0;whiteSpace=wrap;html=1;fontColor=#94847c;fillColor=#928784;strokeWidth=0;strokeColor=none;" vertex="1" parent="1">
                    <mxGeometry x="-1290" y="-1087" width="120" height="60" as="geometry"/>
                </mxCell>
                <mxCell id="14" value="&lt;font color=&quot;#6a5e5d&quot;&gt;#c4bcb4&lt;/font&gt;" style="rounded=0;whiteSpace=wrap;html=1;fontColor=#fbf9f9;fillColor=#c4bcb4;strokeWidth=0;strokeColor=none;" vertex="1" parent="1">
                    <mxGeometry x="-1130" y="-1087" width="120" height="60" as="geometry"/>
                </mxCell>
                <mxCell id="15" value="#c3bcbc" style="rounded=0;whiteSpace=wrap;html=1;fontColor=#6a5e5d;fillColor=#c3bcbc;strokeWidth=0;strokeColor=none;" vertex="1" parent="1">
                    <mxGeometry x="-1030" y="-975" width="120" height="60" as="geometry"/>
                </mxCell>
                <mxCell id="16" value="#e2dcd4" style="rounded=0;whiteSpace=wrap;html=1;fontColor=#6a5e5d;fillColor=#e2dcd4;strokeWidth=0;strokeColor=none;" vertex="1" parent="1">
                    <mxGeometry x="-970" y="-1087" width="120" height="60" as="geometry"/>
                </mxCell>
                <mxCell id="17" value="&lt;font color=&quot;#ffffff&quot;&gt;#8c847c&lt;/font&gt;" style="rounded=0;whiteSpace=wrap;html=1;fontColor=#94847c;fillColor=#8c847c;strokeWidth=0;strokeColor=none;" vertex="1" parent="1">
                    <mxGeometry x="-1630" y="-1087" width="120" height="60" as="geometry"/>
                </mxCell>
                <mxCell id="20" value="&lt;font color=&quot;#94847c&quot;&gt;#faf9f8&lt;/font&gt;" style="rounded=0;whiteSpace=wrap;html=1;fontColor=#FFFFFF;fillColor=#faf9f8;strokeWidth=0;strokeColor=none;" vertex="1" parent="1">
                    <mxGeometry x="-1460" y="-1087" width="120" height="60" as="geometry"/>
                </mxCell>
                <mxCell id="30" value="#94847c" style="rounded=0;whiteSpace=wrap;html=1;fillColor=#94847c;strokeWidth=0;strokeColor=none;" vertex="1" parent="1">
                    <mxGeometry x="-1700" y="-976" width="120" height="60" as="geometry"/>
                </mxCell>
                <mxCell id="31" value="#8c847c" style="rounded=0;whiteSpace=wrap;html=1;fontColor=#FFFFFF;fillColor=#ada19e;strokeWidth=0;strokeColor=none;" vertex="1" parent="1">
                    <mxGeometry x="-1550" y="-975" width="120" height="60" as="geometry"/>
                </mxCell>
                <mxCell id="32" value="#cccbbd" style="rounded=0;whiteSpace=wrap;html=1;fontColor=#94847c;fillColor=#cccbbd;strokeWidth=0;strokeColor=none;" vertex="1" parent="1">
                    <mxGeometry x="-1370" y="-975" width="120" height="60" as="geometry"/>
                </mxCell>
                <mxCell id="33" value="#928784" style="rounded=0;whiteSpace=wrap;html=1;fontColor=#fbf9f9;fillColor=#6a5e5d;strokeWidth=0;strokeColor=none;" vertex="1" parent="1">
                    <mxGeometry x="-1200" y="-975" width="120" height="60" as="geometry"/>
                </mxCell>
                <mxCell id="36" value="" style="shape=image;verticalLabelPosition=bottom;labelBackgroundColor=default;verticalAlign=top;aspect=fixed;imageAspect=0;image=data:image/png,iVBORw0KGgoAAAANSUhEUgAAAroAAABZCAYAAADRsoccAAAAAXNSR0IArs4c6QAAAARnQU1BAACxjwv8YQUAAAAJcEhZcwAADsMAAA7DAcdvqGQAAAH1SURBVHhe7dahEQJBAATBg1AuJxQ5oEgCDB5PCjgkcYE5Sz16qtvshjC7w/n6GfCny+m4Hmx7vt7rwbbH/bYebJtzrge/7dcCAECK0AUAIEnoAgCQJHQBAEgSugAAJAldAACShC4AAElCFwCAJKELAECS0AUAIEnoAgCQJHQBAEgSugAAJAldAACShC4AAElCFwCAJKELAECS0AUAIEnoAgCQJHQBAEgSugAAJAldAACShC4AAElCFwCAJKELAECS0AUAIEnoAgCQJHQBAEgSugAAJAldAACShC4AAElCFwCAJKELAECS0AUAIEnoAgCQJHQBAEgSugAAJAldAACShC4AAElCFwCAJKELAECS0AUAIEnoAgCQJHQBAEgSugAAJAldAACShC4AAElCFwCAJKELAECS0AUAIEnoAgCQJHQBAEgSugAAJAldAACShC4AAElCFwCAJKELAECS0AUAIEnoAgCQJHQBAEgSugAAJAldAACShC4AAElCFwCAJKELAECS0AUAIEnoAgCQJHQBAEgSugAAJAldAACShC4AAElCFwCAJKELAECS0AUAIEnoAgCQJHQBAEgSugAAJAldAACShC4AAElCFwCAJKELAECS0AUAIEnoAgCQJHQBAEgSugAAJAldAACShC4AAElCFwCAoDG+9K0IwuYYNZkAAAAASUVORK5CYII=;strokeColor=none;" vertex="1" parent="1">
                    <mxGeometry x="-1700" y="-791" width="850" height="108.38" as="geometry"/>
                </mxCell>
                <mxCell id="37" value="" style="shape=image;verticalLabelPosition=bottom;labelBackgroundColor=default;verticalAlign=top;aspect=fixed;imageAspect=0;image=data:image/png,iVBORw0KGgoAAAANSUhEUgAAArkAAABYCAYAAADx2e+6AAAAAXNSR0IArs4c6QAAAARnQU1BAACxjwv8YQUAAAAJcEhZcwAADsMAAA7DAcdvqGQAAAHxSURBVHhe7dYhFUJBAETRBUcDDgnIQMrfgQIIIpAFjfwOzGrWv3OvmYnwDvfn6ztg4fR5zwdr+/kyH6w9tm0+WNuvt/ngv+NcAADIELkAAOSIXAAAckQuAAA5IhcAgByRCwBAjsgFACBH5AIAkCNyAQDIEbkAAOSIXAAAckQuAAA5IhcAgByRCwBAjsgFACBH5AIAkCNyAQDIEbkAAOSIXAAAckQuAAA5IhcAgByRCwBAjsgFACBH5AIAkCNyAQDIEbkAAOSIXAAAckQuAAA5IhcAgByRCwBAjsgFACBH5AIAkCNyAQDIEbkAAOSIXAAAckQuAAA5IhcAgByRCwBAjsgFACBH5AIAkCNyAQDIEbkAAOSIXAAAckQuAAA5IhcAgByRCwBAjsgFACBH5AIAkCNyAQDIEbkAAOSIXAAAckQuAAA5IhcAgByRCwBAjsgFACBH5AIAkCNyAQDIEbkAAOSIXAAAckQuAAA5IhcAgByRCwBAjsgFACBH5AIAkCNyAQDIEbkAAOSIXAAAckQuAAA5IhcAgByRCwBAjsgFACBH5AIAkCNyAQDIEbkAAOSIXAAAckQuAAA5IhcAgByRCwBAjsgFACBH5AIAkCNyAQDIEbkAAOSIXAAAckQuAAA5IhcAgByRCwBAjsgFACBmjB91Kwn9gq2zCwAAAABJRU5ErkJggg==;strokeColor=none;" vertex="1" parent="1">
                    <mxGeometry x="-1700" y="-645" width="850" height="107.32" as="geometry"/>
                </mxCell>
                <mxCell id="38" value="#55748a" style="text;strokeColor=none;fillColor=none;html=1;fontSize=24;fontStyle=1;verticalAlign=middle;align=center;strokeWidth=0;fontColor=#dee2e5;" vertex="1" parent="1">
                    <mxGeometry x="-1670" y="-760.81" width="100" height="40" as="geometry"/>
                </mxCell>
                <mxCell id="39" value="#dee2e5" style="text;strokeColor=none;fillColor=none;html=1;fontSize=24;fontStyle=1;verticalAlign=middle;align=center;strokeWidth=0;fontColor=#55748a;" vertex="1" parent="1">
                    <mxGeometry x="-1490" y="-760.81" width="100" height="40" as="geometry"/>
                </mxCell>
                <mxCell id="40" value="#949faa" style="text;strokeColor=none;fillColor=none;html=1;fontSize=24;fontStyle=1;verticalAlign=middle;align=center;strokeWidth=0;fontColor=#dee2e5;" vertex="1" parent="1">
                    <mxGeometry x="-1325" y="-760.81" width="100" height="40" as="geometry"/>
                </mxCell>
                <mxCell id="41" value="#393939" style="text;strokeColor=none;fillColor=none;html=1;fontSize=24;fontStyle=1;verticalAlign=middle;align=center;strokeWidth=0;fontColor=#dee2e5;" vertex="1" parent="1">
                    <mxGeometry x="-1160" y="-760.81" width="100" height="40" as="geometry"/>
                </mxCell>
                <mxCell id="42" value="#5b5b5b" style="text;strokeColor=none;fillColor=none;html=1;fontSize=24;fontStyle=1;verticalAlign=middle;align=center;strokeWidth=0;fontColor=#dee2e5;" vertex="1" parent="1">
                    <mxGeometry x="-980" y="-760.81" width="100" height="40" as="geometry"/>
                </mxCell>
                <mxCell id="43" value="#5b5b5b" style="text;strokeColor=none;fillColor=none;html=1;fontSize=24;fontStyle=1;verticalAlign=middle;align=center;strokeWidth=0;fontColor=#dee2e5;" vertex="1" parent="1">
                    <mxGeometry x="-1660" y="-611.34" width="100" height="40" as="geometry"/>
                </mxCell>
                <mxCell id="46" value="#aca4aa" style="text;strokeColor=none;fillColor=none;html=1;fontSize=24;fontStyle=1;verticalAlign=middle;align=center;strokeWidth=0;fontColor=#dee2e5;" vertex="1" parent="1">
                    <mxGeometry x="-1500" y="-611.34" width="100" height="40" as="geometry"/>
                </mxCell>
                <mxCell id="47" value="#a4bcc4" style="text;strokeColor=none;fillColor=none;html=1;fontSize=24;fontStyle=1;verticalAlign=middle;align=center;strokeWidth=0;fontColor=#dee2e5;" vertex="1" parent="1">
                    <mxGeometry x="-1330" y="-611.34" width="100" height="40" as="geometry"/>
                </mxCell>
                <mxCell id="48" value="#a4bcc4" style="text;strokeColor=none;fillColor=none;html=1;fontSize=24;fontStyle=1;verticalAlign=middle;align=center;strokeWidth=0;fontColor=#dee2e5;" vertex="1" parent="1">
                    <mxGeometry x="-1160" y="-611.34" width="100" height="40" as="geometry"/>
                </mxCell>
                <mxCell id="49" value="#4c748e" style="text;strokeColor=none;fillColor=none;html=1;fontSize=24;fontStyle=1;verticalAlign=middle;align=center;strokeWidth=0;fontColor=#dee2e5;" vertex="1" parent="1">
                    <mxGeometry x="-980" y="-611.34" width="100" height="40" as="geometry"/>
                </mxCell>
                <mxCell id="50" value="#577188" style="rounded=0;whiteSpace=wrap;html=1;strokeWidth=0;fontColor=#dee2e5;fillColor=#577188;strokeColor=none;resizeWidth=1;resizeHeight=1;" vertex="1" parent="1">
                    <mxGeometry x="-1700" y="-695" width="850" height="50" as="geometry"/>
                </mxCell>
            </root>
        </mxGraphModel>
    </diagram>
</mxfile>